<mxfile host="app.diagrams.net" agent="Mozilla/5.0 (Windows NT 10.0; Win64; x64) AppleWebKit/537.36 (KHTML, like Gecko) Chrome/128.0.0.0 Safari/537.36 OPR/114.0.0.0" version="25.0.3">
  <diagram name="Strona-1" id="PgIZiGwXGUqN3fMDYzbm">
    <mxGraphModel dx="1187" dy="636" grid="1" gridSize="10" guides="1" tooltips="1" connect="1" arrows="1" fold="1" page="1" pageScale="1" pageWidth="827" pageHeight="1169" background="none" math="0" shadow="0">
      <root>
        <mxCell id="0" />
        <mxCell id="1" parent="0" />
        <mxCell id="xhVxFFICLKK-33eDcB5s-1" value="&lt;font face=&quot;Verdana&quot;&gt;Użytkownik&lt;/font&gt;" style="rounded=0;whiteSpace=wrap;html=1;fillColor=#dae8fc;strokeColor=#6c8ebf;" vertex="1" parent="1">
          <mxGeometry x="400" y="330" width="120" height="60" as="geometry" />
        </mxCell>
        <mxCell id="xhVxFFICLKK-33eDcB5s-3" value="Dodaje dane oferty" style="endArrow=classic;html=1;rounded=0;entryX=0.5;entryY=1;entryDx=0;entryDy=0;exitX=0.5;exitY=0;exitDx=0;exitDy=0;" edge="1" parent="1" source="xhVxFFICLKK-33eDcB5s-1" target="xhVxFFICLKK-33eDcB5s-6">
          <mxGeometry width="50" height="50" relative="1" as="geometry">
            <mxPoint x="360" y="580" as="sourcePoint" />
            <mxPoint x="370" y="339.9999999999998" as="targetPoint" />
          </mxGeometry>
        </mxCell>
        <mxCell id="xhVxFFICLKK-33eDcB5s-4" value="&lt;font face=&quot;Verdana&quot;&gt;Administrator&lt;/font&gt;" style="rounded=0;whiteSpace=wrap;html=1;fillColor=#dae8fc;strokeColor=#6c8ebf;" vertex="1" parent="1">
          <mxGeometry x="70" y="70" width="120" height="60" as="geometry" />
        </mxCell>
        <mxCell id="xhVxFFICLKK-33eDcB5s-6" value="Dodaj ofertę" style="rounded=1;whiteSpace=wrap;html=1;fillColor=#d5e8d4;strokeColor=#82b366;" vertex="1" parent="1">
          <mxGeometry x="270" y="220" width="120" height="60" as="geometry" />
        </mxCell>
        <mxCell id="xhVxFFICLKK-33eDcB5s-7" value="Platforma do wymiany przedmiotów" style="rounded=0;whiteSpace=wrap;html=1;fillColor=#f5f5f5;fontColor=#333333;strokeColor=#666666;" vertex="1" parent="1">
          <mxGeometry x="310" y="70" width="340" height="60" as="geometry" />
        </mxCell>
        <mxCell id="xhVxFFICLKK-33eDcB5s-8" value="Zarządza ofertami" style="endArrow=classic;html=1;rounded=0;entryX=0;entryY=0.5;entryDx=0;entryDy=0;exitX=1;exitY=0.5;exitDx=0;exitDy=0;" edge="1" parent="1" source="xhVxFFICLKK-33eDcB5s-4" target="xhVxFFICLKK-33eDcB5s-7">
          <mxGeometry width="50" height="50" relative="1" as="geometry">
            <mxPoint x="210" y="220" as="sourcePoint" />
            <mxPoint x="260" y="170" as="targetPoint" />
          </mxGeometry>
        </mxCell>
        <mxCell id="xhVxFFICLKK-33eDcB5s-9" value="Zapisuje ofertę" style="endArrow=classic;html=1;rounded=0;exitX=0.5;exitY=0;exitDx=0;exitDy=0;entryX=0.059;entryY=0.962;entryDx=0;entryDy=0;entryPerimeter=0;" edge="1" parent="1" source="xhVxFFICLKK-33eDcB5s-6" target="xhVxFFICLKK-33eDcB5s-7">
          <mxGeometry width="50" height="50" relative="1" as="geometry">
            <mxPoint x="380" y="220" as="sourcePoint" />
            <mxPoint x="370" y="140" as="targetPoint" />
          </mxGeometry>
        </mxCell>
        <mxCell id="xhVxFFICLKK-33eDcB5s-10" value="Dodaj ofertę" style="rounded=1;whiteSpace=wrap;html=1;fillColor=#d5e8d4;strokeColor=#82b366;" vertex="1" parent="1">
          <mxGeometry x="510" y="220" width="120" height="60" as="geometry" />
        </mxCell>
        <mxCell id="xhVxFFICLKK-33eDcB5s-11" value="Zapytanie o oferty" style="endArrow=classic;html=1;rounded=0;entryX=0.5;entryY=1;entryDx=0;entryDy=0;exitX=1;exitY=0;exitDx=0;exitDy=0;" edge="1" parent="1" source="xhVxFFICLKK-33eDcB5s-1" target="xhVxFFICLKK-33eDcB5s-10">
          <mxGeometry width="50" height="50" relative="1" as="geometry">
            <mxPoint x="360" y="440" as="sourcePoint" />
            <mxPoint x="410" y="390" as="targetPoint" />
          </mxGeometry>
        </mxCell>
        <mxCell id="xhVxFFICLKK-33eDcB5s-12" value="Pobiera oferty" style="endArrow=classic;html=1;rounded=0;exitX=0.75;exitY=0;exitDx=0;exitDy=0;" edge="1" parent="1" source="xhVxFFICLKK-33eDcB5s-10">
          <mxGeometry x="0.4444" width="50" height="50" relative="1" as="geometry">
            <mxPoint x="360" y="440" as="sourcePoint" />
            <mxPoint x="600" y="130" as="targetPoint" />
            <mxPoint y="-1" as="offset" />
          </mxGeometry>
        </mxCell>
        <mxCell id="xhVxFFICLKK-33eDcB5s-14" value="Lista ofert" style="endArrow=classic;html=1;rounded=0;entryX=0.25;entryY=0;entryDx=0;entryDy=0;exitX=0.673;exitY=1.021;exitDx=0;exitDy=0;exitPerimeter=0;" edge="1" parent="1" source="xhVxFFICLKK-33eDcB5s-7" target="xhVxFFICLKK-33eDcB5s-10">
          <mxGeometry x="0.3287" width="50" height="50" relative="1" as="geometry">
            <mxPoint x="360" y="440" as="sourcePoint" />
            <mxPoint x="410" y="390" as="targetPoint" />
            <mxPoint as="offset" />
          </mxGeometry>
        </mxCell>
        <mxCell id="xhVxFFICLKK-33eDcB5s-15" value="" style="ellipse;html=1;shape=startState;" vertex="1" parent="1">
          <mxGeometry x="390" y="760" width="30" height="30" as="geometry" />
        </mxCell>
        <mxCell id="xhVxFFICLKK-33eDcB5s-16" value="" style="edgeStyle=orthogonalEdgeStyle;html=1;verticalAlign=bottom;endArrow=open;endSize=8;strokeColor=default;rounded=0;entryX=0.5;entryY=0;entryDx=0;entryDy=0;" edge="1" source="xhVxFFICLKK-33eDcB5s-15" parent="1" target="xhVxFFICLKK-33eDcB5s-18">
          <mxGeometry relative="1" as="geometry">
            <mxPoint x="405" y="850" as="targetPoint" />
          </mxGeometry>
        </mxCell>
        <mxCell id="xhVxFFICLKK-33eDcB5s-17" value="Start" style="text;html=1;align=center;verticalAlign=middle;resizable=0;points=[];autosize=1;strokeColor=none;fillColor=none;" vertex="1" parent="1">
          <mxGeometry x="380" y="730" width="50" height="30" as="geometry" />
        </mxCell>
        <mxCell id="xhVxFFICLKK-33eDcB5s-18" value="Dodanie oferty" style="ellipse;whiteSpace=wrap;html=1;" vertex="1" parent="1">
          <mxGeometry x="345" y="870" width="120" height="60" as="geometry" />
        </mxCell>
        <mxCell id="xhVxFFICLKK-33eDcB5s-19" value="Przeglądanie ofert" style="ellipse;whiteSpace=wrap;html=1;" vertex="1" parent="1">
          <mxGeometry x="200" y="870" width="120" height="60" as="geometry" />
        </mxCell>
        <mxCell id="xhVxFFICLKK-33eDcB5s-20" value="Zarządzanie ofertami" style="ellipse;whiteSpace=wrap;html=1;" vertex="1" parent="1">
          <mxGeometry x="490" y="870" width="120" height="60" as="geometry" />
        </mxCell>
        <mxCell id="xhVxFFICLKK-33eDcB5s-21" value="" style="ellipse;html=1;shape=endState;" vertex="1" parent="1">
          <mxGeometry x="390" y="980" width="30" height="30" as="geometry" />
        </mxCell>
        <mxCell id="xhVxFFICLKK-33eDcB5s-22" value="" style="edgeStyle=orthogonalEdgeStyle;html=1;verticalAlign=bottom;endArrow=open;endSize=8;strokeColor=default;rounded=0;entryX=0.5;entryY=0;entryDx=0;entryDy=0;exitX=0.5;exitY=1;exitDx=0;exitDy=0;" edge="1" parent="1" source="xhVxFFICLKK-33eDcB5s-18" target="xhVxFFICLKK-33eDcB5s-21">
          <mxGeometry relative="1" as="geometry">
            <mxPoint x="415" y="880" as="targetPoint" />
            <mxPoint x="415" y="800" as="sourcePoint" />
          </mxGeometry>
        </mxCell>
        <mxCell id="xhVxFFICLKK-33eDcB5s-23" value="Koniec" style="text;html=1;align=center;verticalAlign=middle;resizable=0;points=[];autosize=1;strokeColor=none;fillColor=none;" vertex="1" parent="1">
          <mxGeometry x="375" y="1030" width="60" height="30" as="geometry" />
        </mxCell>
        <mxCell id="xhVxFFICLKK-33eDcB5s-24" value="" style="edgeStyle=orthogonalEdgeStyle;html=1;verticalAlign=bottom;endArrow=open;endSize=8;strokeColor=default;rounded=0;entryX=0.5;entryY=0;entryDx=0;entryDy=0;exitX=0;exitY=0.5;exitDx=0;exitDy=0;" edge="1" parent="1" source="xhVxFFICLKK-33eDcB5s-15" target="xhVxFFICLKK-33eDcB5s-19">
          <mxGeometry relative="1" as="geometry">
            <mxPoint x="415" y="880" as="targetPoint" />
            <mxPoint x="415" y="800" as="sourcePoint" />
          </mxGeometry>
        </mxCell>
        <mxCell id="xhVxFFICLKK-33eDcB5s-25" value="" style="edgeStyle=orthogonalEdgeStyle;html=1;verticalAlign=bottom;endArrow=open;endSize=8;strokeColor=default;rounded=0;entryX=0.5;entryY=0;entryDx=0;entryDy=0;exitX=0.827;exitY=0.471;exitDx=0;exitDy=0;exitPerimeter=0;" edge="1" parent="1" source="xhVxFFICLKK-33eDcB5s-15" target="xhVxFFICLKK-33eDcB5s-20">
          <mxGeometry relative="1" as="geometry">
            <mxPoint x="270" y="880" as="targetPoint" />
            <mxPoint x="400" y="785" as="sourcePoint" />
          </mxGeometry>
        </mxCell>
        <mxCell id="xhVxFFICLKK-33eDcB5s-26" value="" style="edgeStyle=orthogonalEdgeStyle;html=1;verticalAlign=bottom;endArrow=open;endSize=8;strokeColor=default;rounded=0;entryX=0;entryY=0.5;entryDx=0;entryDy=0;exitX=0.5;exitY=1;exitDx=0;exitDy=0;" edge="1" parent="1" source="xhVxFFICLKK-33eDcB5s-19" target="xhVxFFICLKK-33eDcB5s-21">
          <mxGeometry relative="1" as="geometry">
            <mxPoint x="270" y="880" as="targetPoint" />
            <mxPoint x="400" y="785" as="sourcePoint" />
          </mxGeometry>
        </mxCell>
        <mxCell id="xhVxFFICLKK-33eDcB5s-27" value="" style="edgeStyle=orthogonalEdgeStyle;html=1;verticalAlign=bottom;endArrow=open;endSize=8;strokeColor=default;rounded=0;entryX=1;entryY=0.5;entryDx=0;entryDy=0;exitX=0.5;exitY=1;exitDx=0;exitDy=0;" edge="1" parent="1" source="xhVxFFICLKK-33eDcB5s-20" target="xhVxFFICLKK-33eDcB5s-21">
          <mxGeometry relative="1" as="geometry">
            <mxPoint x="400" y="1005" as="targetPoint" />
            <mxPoint x="270" y="940" as="sourcePoint" />
          </mxGeometry>
        </mxCell>
        <mxCell id="xhVxFFICLKK-33eDcB5s-28" value="" style="ellipse;html=1;shape=startState;" vertex="1" parent="1">
          <mxGeometry x="390" y="1360" width="30" height="30" as="geometry" />
        </mxCell>
        <mxCell id="xhVxFFICLKK-33eDcB5s-29" value="Start" style="text;html=1;align=center;verticalAlign=middle;resizable=0;points=[];autosize=1;strokeColor=none;fillColor=none;" vertex="1" parent="1">
          <mxGeometry x="380" y="1330" width="50" height="30" as="geometry" />
        </mxCell>
        <mxCell id="xhVxFFICLKK-33eDcB5s-30" value="Co chcesz zrobić?" style="rhombus;whiteSpace=wrap;html=1;fontColor=#000000;fillColor=#ffffc0;strokeColor=#000000;" vertex="1" parent="1">
          <mxGeometry x="355" y="1490" width="100" height="70" as="geometry" />
        </mxCell>
        <mxCell id="xhVxFFICLKK-33eDcB5s-31" value="Przeglądaj oferty" style="edgeStyle=orthogonalEdgeStyle;html=1;align=left;verticalAlign=bottom;endArrow=open;endSize=8;strokeColor=#000000;rounded=0;" edge="1" source="xhVxFFICLKK-33eDcB5s-30" parent="1">
          <mxGeometry x="-1" relative="1" as="geometry">
            <mxPoint x="560" y="1525" as="targetPoint" />
          </mxGeometry>
        </mxCell>
        <mxCell id="xhVxFFICLKK-33eDcB5s-32" value="Dodaj ofertę" style="edgeStyle=orthogonalEdgeStyle;html=1;align=left;verticalAlign=top;endArrow=open;endSize=8;strokeColor=#000000;rounded=0;" edge="1" source="xhVxFFICLKK-33eDcB5s-30" parent="1">
          <mxGeometry x="-1" relative="1" as="geometry">
            <mxPoint x="405" y="1610" as="targetPoint" />
          </mxGeometry>
        </mxCell>
        <mxCell id="xhVxFFICLKK-33eDcB5s-33" value="" style="edgeStyle=orthogonalEdgeStyle;html=1;verticalAlign=bottom;endArrow=open;endSize=8;strokeColor=default;rounded=0;exitX=0.5;exitY=1;exitDx=0;exitDy=0;entryX=0.5;entryY=0;entryDx=0;entryDy=0;" edge="1" parent="1" source="xhVxFFICLKK-33eDcB5s-28" target="xhVxFFICLKK-33eDcB5s-35">
          <mxGeometry relative="1" as="geometry">
            <mxPoint x="405" y="1360" as="targetPoint" />
            <mxPoint x="459.63" y="1270" as="sourcePoint" />
          </mxGeometry>
        </mxCell>
        <mxCell id="xhVxFFICLKK-33eDcB5s-35" value="System wyświetla okno startowe" style="rounded=1;whiteSpace=wrap;html=1;arcSize=40;fontColor=#000000;fillColor=#ffffc0;strokeColor=#000000;" vertex="1" parent="1">
          <mxGeometry x="345" y="1420" width="120" height="40" as="geometry" />
        </mxCell>
        <mxCell id="xhVxFFICLKK-33eDcB5s-36" value="" style="edgeStyle=orthogonalEdgeStyle;html=1;verticalAlign=bottom;endArrow=open;endSize=8;strokeColor=#000000;rounded=0;entryX=0.5;entryY=0;entryDx=0;entryDy=0;" edge="1" source="xhVxFFICLKK-33eDcB5s-35" parent="1" target="xhVxFFICLKK-33eDcB5s-30">
          <mxGeometry relative="1" as="geometry">
            <mxPoint x="405" y="1460" as="targetPoint" />
          </mxGeometry>
        </mxCell>
        <mxCell id="xhVxFFICLKK-33eDcB5s-38" value="System wyświetla listę ofert" style="rounded=1;whiteSpace=wrap;html=1;arcSize=40;fontColor=#000000;fillColor=#ffffc0;strokeColor=#000000;" vertex="1" parent="1">
          <mxGeometry x="560" y="1505" width="120" height="40" as="geometry" />
        </mxCell>
        <mxCell id="xhVxFFICLKK-33eDcB5s-39" value="Użytkownik przegląda oferty" style="rounded=1;whiteSpace=wrap;html=1;arcSize=40;fontColor=#000000;fillColor=#ffffc0;strokeColor=#000000;" vertex="1" parent="1">
          <mxGeometry x="560" y="1610" width="120" height="40" as="geometry" />
        </mxCell>
        <mxCell id="xhVxFFICLKK-33eDcB5s-40" value="Użytkownik kończy przeglądanie ofert" style="rounded=1;whiteSpace=wrap;html=1;arcSize=40;fontColor=#000000;fillColor=#ffffc0;strokeColor=#000000;" vertex="1" parent="1">
          <mxGeometry x="560" y="1680" width="120" height="40" as="geometry" />
        </mxCell>
        <mxCell id="xhVxFFICLKK-33eDcB5s-41" value="" style="edgeStyle=orthogonalEdgeStyle;html=1;align=left;verticalAlign=top;endArrow=open;endSize=8;strokeColor=#000000;rounded=0;exitX=0.5;exitY=1;exitDx=0;exitDy=0;entryX=0.5;entryY=0;entryDx=0;entryDy=0;" edge="1" parent="1" source="xhVxFFICLKK-33eDcB5s-38" target="xhVxFFICLKK-33eDcB5s-39">
          <mxGeometry x="-1" relative="1" as="geometry">
            <mxPoint x="415" y="1660" as="targetPoint" />
            <mxPoint x="415" y="1570" as="sourcePoint" />
          </mxGeometry>
        </mxCell>
        <mxCell id="xhVxFFICLKK-33eDcB5s-42" value="" style="edgeStyle=orthogonalEdgeStyle;html=1;align=left;verticalAlign=top;endArrow=open;endSize=8;strokeColor=#000000;rounded=0;exitX=0.5;exitY=1;exitDx=0;exitDy=0;entryX=0.5;entryY=0;entryDx=0;entryDy=0;" edge="1" parent="1" source="xhVxFFICLKK-33eDcB5s-39" target="xhVxFFICLKK-33eDcB5s-40">
          <mxGeometry x="-1" relative="1" as="geometry">
            <mxPoint x="630" y="1620" as="targetPoint" />
            <mxPoint x="630" y="1555" as="sourcePoint" />
          </mxGeometry>
        </mxCell>
        <mxCell id="xhVxFFICLKK-33eDcB5s-43" value="" style="ellipse;html=1;shape=endState;" vertex="1" parent="1">
          <mxGeometry x="605" y="1790" width="30" height="30" as="geometry" />
        </mxCell>
        <mxCell id="xhVxFFICLKK-33eDcB5s-44" value="" style="edgeStyle=orthogonalEdgeStyle;html=1;align=left;verticalAlign=top;endArrow=open;endSize=8;strokeColor=#000000;rounded=0;exitX=0.5;exitY=1;exitDx=0;exitDy=0;entryX=0.5;entryY=0;entryDx=0;entryDy=0;" edge="1" parent="1" source="xhVxFFICLKK-33eDcB5s-40" target="xhVxFFICLKK-33eDcB5s-43">
          <mxGeometry x="-1" relative="1" as="geometry">
            <mxPoint x="630" y="1690" as="targetPoint" />
            <mxPoint x="630" y="1660" as="sourcePoint" />
          </mxGeometry>
        </mxCell>
        <mxCell id="xhVxFFICLKK-33eDcB5s-45" value="Koniec" style="text;html=1;align=center;verticalAlign=middle;resizable=0;points=[];autosize=1;strokeColor=none;fillColor=none;" vertex="1" parent="1">
          <mxGeometry x="590" y="1830" width="60" height="30" as="geometry" />
        </mxCell>
        <mxCell id="xhVxFFICLKK-33eDcB5s-46" value="System wyświetla formularz do dodania oferty" style="rounded=1;whiteSpace=wrap;html=1;arcSize=40;fontColor=#000000;fillColor=#ffffc0;strokeColor=#000000;" vertex="1" parent="1">
          <mxGeometry x="323" y="1610" width="164" height="40" as="geometry" />
        </mxCell>
        <mxCell id="xhVxFFICLKK-33eDcB5s-47" value="Użytkownik podaje dane" style="rounded=1;whiteSpace=wrap;html=1;arcSize=40;fontColor=#000000;fillColor=#ffffc0;strokeColor=#000000;" vertex="1" parent="1">
          <mxGeometry x="345" y="1680" width="120" height="40" as="geometry" />
        </mxCell>
        <mxCell id="xhVxFFICLKK-33eDcB5s-48" value="System zapisuje dane w systemie" style="rounded=1;whiteSpace=wrap;html=1;arcSize=40;fontColor=#000000;fillColor=#ffffc0;strokeColor=#000000;" vertex="1" parent="1">
          <mxGeometry x="338" y="1750" width="134" height="40" as="geometry" />
        </mxCell>
        <mxCell id="xhVxFFICLKK-33eDcB5s-49" value="" style="edgeStyle=orthogonalEdgeStyle;html=1;align=left;verticalAlign=top;endArrow=open;endSize=8;strokeColor=#000000;rounded=0;exitX=0.5;exitY=1;exitDx=0;exitDy=0;entryX=0.5;entryY=0;entryDx=0;entryDy=0;" edge="1" parent="1" source="xhVxFFICLKK-33eDcB5s-46" target="xhVxFFICLKK-33eDcB5s-47">
          <mxGeometry x="-1" relative="1" as="geometry">
            <mxPoint x="630" y="1620" as="targetPoint" />
            <mxPoint x="630" y="1555" as="sourcePoint" />
          </mxGeometry>
        </mxCell>
        <mxCell id="xhVxFFICLKK-33eDcB5s-50" value="" style="edgeStyle=orthogonalEdgeStyle;html=1;align=left;verticalAlign=top;endArrow=open;endSize=8;strokeColor=#000000;rounded=0;exitX=0.5;exitY=1;exitDx=0;exitDy=0;entryX=0.5;entryY=0;entryDx=0;entryDy=0;" edge="1" parent="1" source="xhVxFFICLKK-33eDcB5s-47" target="xhVxFFICLKK-33eDcB5s-48">
          <mxGeometry x="-1" relative="1" as="geometry">
            <mxPoint x="415" y="1690" as="targetPoint" />
            <mxPoint x="415" y="1660" as="sourcePoint" />
          </mxGeometry>
        </mxCell>
        <mxCell id="xhVxFFICLKK-33eDcB5s-51" value="" style="edgeStyle=orthogonalEdgeStyle;html=1;align=left;verticalAlign=top;endArrow=open;endSize=8;strokeColor=#000000;rounded=0;exitX=0.5;exitY=1;exitDx=0;exitDy=0;entryX=0;entryY=0.5;entryDx=0;entryDy=0;" edge="1" parent="1" source="xhVxFFICLKK-33eDcB5s-48" target="xhVxFFICLKK-33eDcB5s-43">
          <mxGeometry x="-1" relative="1" as="geometry">
            <mxPoint x="630" y="1860" as="targetPoint" />
            <mxPoint x="630" y="1730" as="sourcePoint" />
          </mxGeometry>
        </mxCell>
      </root>
    </mxGraphModel>
  </diagram>
</mxfile>
